# xmcd CD database file
#
# Track frame offsets:
#	150
#	28775
#	67537
#	90512
#	131100
#	152062
#	187025
#	213187
#
# Disc length: 3207 seconds
#
# Revision: 0
# Processed by: cddbd v1.5.2PL0 Copyright (c) Steve Scherf et al.
# Submitted via: CDex 1.51
#
DISCID=630c8508
DTITLE=Алексей Козлов - Алексей Козлов и его "Арсенал"
DYEAR=1991
DGENRE=Jazz
TTITLE0=Голубоглазый блюз
TTITLE1=Воспоминание об Антлантиде
TTITLE2=Живая Вода
TTITLE3=Искушение
TTITLE4=Загадочный сон
TTITLE5=Последний взгляд
TTITLE6=Желтое небо
TTITLE7=Незнакомка
EXTD=YEAR: 1991
EXTT0=
EXTT1=
EXTT2=
EXTT3=
EXTT4=
EXTT5=
EXTT6=
EXTT7=
PLAYORDER=
